<svg width="110" height="32" viewBox="0 0 110 32" fill="none" xmlns="http://www.w3.org/2000/svg">
<path fill-rule="evenodd" clip-rule="evenodd" d="M7.169 0L0.418982 9H7.169H10.544V6H10.5442V9.00027L12.7944 6H26.9195L29.1697 9.00029L29.1692 9.00028L26.9193 12.0001H16.419V12.0002H16.4188L10.4188 20.0002H16.4188H19.4188V18.0001H19.4189V20.0003L20.9191 18.0001H22.4193L22.4192 18.0003H29.1692H32.5442V9.00028L32.5443 9.00029V18L39.2944 9.00003H32.5447L39.2944 9.00002L32.5447 0.000478743V0.000286102H32.5445L32.5443 2.09808e-05V0.000286102H32.4189V0H10.544H9.41894H7.169ZM16.4188 24.0002L10.4188 32.0002H16.4188H19.4188V24.0002H16.4188ZM25.419 24L19.4189 32V24H25.419Z" fill="url(#paint0_linear_668_14212)"/>
<path d="M87.5844 15.5867V18.6744H79.5854H75.7196H67.0642V15.5867H87.5844ZM69.301 26.8922V20.2791H73.1911V23.7802H85.3476V26.8922H69.301Z" fill="#42307D"/>
<path d="M65.0149 4.71875V27.2812H61.0762V4.71875H65.0149ZM46.5613 14.3224C46.5492 9.35038 49.1507 6.214 52.6639 6.22616C56.092 6.214 58.6692 9.35038 58.6692 14.3224C58.6692 19.3674 56.092 22.4916 52.6639 22.4916C49.1507 22.4916 46.5492 19.3674 46.5613 14.3224ZM50.3298 14.3224C50.3177 17.4831 51.2294 18.9297 52.6639 18.9176C54.0133 18.9297 54.9129 17.4831 54.925 14.3224C54.9129 11.2103 54.0133 9.73939 52.6639 9.75155C51.2294 9.73939 50.3177 11.2103 50.3298 14.3224Z" fill="#42307D"/>
<path d="M107.928 5.61841V8.68185H105.278V13.1555H107.66V16.1703H91.0301V13.1555H93.4128V8.68185H90.86V5.61841H107.928ZM89.0608 20.7654V17.629H109.581V20.7654H101.242V27.1841H97.3759V20.7654H89.0608ZM97.3272 13.1555H101.412V8.68185H97.3272V13.1555Z" fill="#42307D"/>
<path fill-rule="evenodd" clip-rule="evenodd" d="M83.3437 5.71886L86.4481 9.858H86.4482L86.4482 9.85809L86.4482 9.85814H86.4481L83.3438 13.9973V13.9979H83.2863V13.9983H77.3068L77.3067 13.9984V13.9983H75.9271V13.9982H75.927H73.8572L75.927 11.2385H77.3068V11.2386H80.7563L81.7914 9.8584H83.3436V9.85816H81.7914L80.7567 8.47857H74.2597L73.2248 9.8584V8.47857H73.2246V9.85879H71.6723H68.5676L71.6723 5.71924H72.7073V5.71887H73.2248V5.71885H76.3295L76.3295 5.71887H78.6869L78.6867 5.7186H81.7914H83.3435V5.71859L83.3435 5.7186H83.3437V5.71886Z" fill="#42307D"/>
<path fill-rule="evenodd" clip-rule="evenodd" d="M83.3437 5.71886L86.4481 9.858H86.4482L86.4482 9.85809L86.4482 9.85814H86.4481L83.3438 13.9973V13.9979H83.2863V13.9983H77.3068L77.3067 13.9984V13.9983H75.9271V13.9982H75.927H73.8572L75.927 11.2385H77.3068V11.2386H80.7563L81.7914 9.8584H83.3436V9.85816H81.7914L80.7567 8.47857H74.2597L73.2248 9.8584V8.47857H73.2246V9.85879H71.6723H68.5676L71.6723 5.71924H72.7073V5.71887H73.2248V5.71885H76.3295L76.3295 5.71887H78.6869L78.6867 5.7186H81.7914H83.3435V5.71859L83.3435 5.7186H83.3437V5.71886Z" fill="url(#paint1_linear_668_14212)"/>
<path d="M76.9375 18.4194L74.343 21.8787H76.9375V18.4194Z" fill="#42307D"/>
<path d="M78.2349 21.8787L80.8293 18.4194H78.2349V21.8787Z" fill="#42307D"/>
<rect x="76.9375" y="18.4194" width="1.29722" height="3.45927" fill="#42307D"/>
<defs>
<linearGradient id="paint0_linear_668_14212" x1="10.1534" y1="32.0002" x2="24.2156" y2="-2.2217" gradientUnits="userSpaceOnUse">
<stop stop-color="#53389E"/>
<stop offset="1" stop-color="#6941C6"/>
</linearGradient>
<linearGradient id="paint1_linear_668_14212" x1="73.045" y1="13.9984" x2="75.316" y2="4.17378" gradientUnits="userSpaceOnUse">
<stop stop-color="#53389E"/>
<stop offset="1" stop-color="#6941C6"/>
</linearGradient>
</defs>
</svg>
