<svg width="176" height="129" viewBox="0 0 176 129" fill="none" xmlns="http://www.w3.org/2000/svg">
<path fill-rule="evenodd" clip-rule="evenodd" d="M123.156 0.000498453L141.859 24.9379L123.156 24.9379H123.155V49.8759H122.809V49.8761H90.9438L86.7875 55.4179V49.8761H86.7873V55.4177H78.4747H61.8493L78.4746 33.2508L78.4747 33.2507H86.7873V33.2508H86.7875H103.413L107.569 33.2508L113.804 24.9379H113.804L107.57 16.6253H68.4307L62.1961 24.9381V16.6253H62.1958V24.9381H52.8441H34.1406L52.8441 0.000144958H59.0788V4.57764e-05H95.1006L95.1006 2.28882e-05H113.804L123.155 0L123.156 2.28882e-05V0.000498453ZM123.155 49.8759L141.859 24.938H123.155V49.8759Z" fill="url(#paint0_linear_647_14766)"/>
<path d="M114.351 96.6064V105.16H92.1938H81.4855H57.5098V96.6064H114.351ZM63.7057 127.923V109.605H74.4814V119.303H108.155V127.923H63.7057Z" fill="#42307D"/>
<path d="M51.8338 66.502V129.001H40.9234V66.502H51.8338ZM0.716914 93.1043C0.683241 79.3317 7.88944 70.6438 17.6212 70.6775C27.1172 70.6438 34.256 79.3317 34.256 93.1043C34.256 107.079 27.1172 115.733 17.6212 115.733C7.88944 115.733 0.683241 107.079 0.716914 93.1043ZM11.1558 93.1043C11.1221 101.859 13.6477 105.867 17.6212 105.833C21.359 105.867 23.8508 101.859 23.8845 93.1043C23.8508 84.4838 21.359 80.4092 17.6212 80.4429C13.6477 80.4092 11.1221 84.4838 11.1558 93.1043Z" fill="#42307D"/>
<path d="M170.703 68.9941V77.4799H163.362V89.8719H169.962V98.223H123.897V89.8719H130.497V77.4799H123.425V68.9941H170.703ZM118.441 110.952V102.264H175.283V110.952H152.183V128.731H141.474V110.952H118.441ZM141.34 89.8719H152.654V77.4799H141.34V89.8719Z" fill="#42307D"/>
<path fill-rule="evenodd" clip-rule="evenodd" d="M77.4424 76.9173L74.5759 80.7392V76.9173H74.5756V80.7401H70.2756H61.6756L70.2756 69.2734H73.1422V69.2728H74.5759V69.2726H83.1759L83.1757 69.2728H89.7053L89.7052 69.2727H98.3052H102.605V80.7393H98.3052L95.4387 76.9173H77.4424ZM85.8832 84.562H82.061V84.5623L76.3278 92.2066H82.0611H85.8833V92.2064H102.446V92.206H102.606V92.2053L111.205 80.7395H111.205L111.205 80.7394L111.205 80.7392H111.205L102.605 69.2729V80.7394H98.3059L95.4389 84.562H93.5277L93.5277 84.562H85.8832V84.562Z" fill="#42307D"/>
<path fill-rule="evenodd" clip-rule="evenodd" d="M77.4424 76.9173L74.5759 80.7392V76.9173H74.5756V80.7401H70.2756H61.6756L70.2756 69.2734H73.1422V69.2728H74.5759V69.2726H83.1759L83.1757 69.2728H89.7053L89.7052 69.2727H98.3052H102.605V80.7393H98.3052L95.4387 76.9173H77.4424ZM85.8832 84.562H82.061V84.5623L76.3278 92.2066H82.0611H85.8833V92.2064H102.446V92.206H102.606V92.2053L111.205 80.7395H111.205L111.205 80.7394L111.205 80.7392H111.205L102.605 69.2729V80.7394H98.3059L95.4389 84.562H93.5277L93.5277 84.562H85.8832V84.562Z" fill="url(#paint1_linear_647_14766)"/>
<path d="M84.8604 104.453L77.6737 114.035H84.8604V104.453Z" fill="#42307D"/>
<path d="M88.4541 114.035L95.6408 104.453H88.4541V114.035Z" fill="#42307D"/>
<rect x="84.8604" y="104.453" width="3.59334" height="9.58224" fill="#42307D"/>
<defs>
<linearGradient id="paint0_linear_647_14766" x1="61.1134" y1="55.4179" x2="77.8033" y2="-9.56812" gradientUnits="userSpaceOnUse">
<stop stop-color="#53389E"/>
<stop offset="1" stop-color="#6941C6"/>
</linearGradient>
<linearGradient id="paint1_linear_647_14766" x1="74.0781" y1="92.2064" x2="80.3684" y2="64.9929" gradientUnits="userSpaceOnUse">
<stop stop-color="#53389E"/>
<stop offset="1" stop-color="#6941C6"/>
</linearGradient>
</defs>
</svg>
