<svg width="20" height="20" viewBox="0 0 20 20" fill="none" xmlns="http://www.w3.org/2000/svg">
<g id="rotate-cw" clip-path="url(#clip0_555_2177)">
<path id="Icon" d="M19.1667 3.33333V8.33333M19.1667 8.33333H14.1667M19.1667 8.33333L15.3083 4.7C14.1588 3.54978 12.6667 2.80432 11.0566 2.57595C9.44661 2.34759 7.80598 2.64868 6.38196 3.43387C4.95795 4.21905 3.82771 5.44579 3.16155 6.92923C2.4954 8.41266 2.32942 10.0724 2.68864 11.6584C3.04785 13.2444 3.9128 14.6706 5.15313 15.7222C6.39346 16.7738 7.94199 17.3939 9.56535 17.4888C11.1887 17.5838 12.799 17.1486 14.1535 16.2488C15.508 15.3489 16.5333 14.0333 17.075 12.5" stroke="#667085" stroke-width="1.67" stroke-linecap="round" stroke-linejoin="round"/>
</g>
<defs>
<clipPath id="clip0_555_2177">
<rect width="20" height="20" fill="white"/>
</clipPath>
</defs>
</svg>
